<svg xmlns="http://www.w3.org/2000/svg" width="512" height="512" viewBox="0 0 300 300"><path d="M50.362 263.638L28 12.747h245.983l-22.362 250.891L150.719 292" fill="#e34f26"/><path d="M151.264 270.183l81.267-22.362 19.09-214.894H151.264" fill="#ef652a"/><path d="M151.264 126.193h-40.906l-2.727-31.634h43.633V64.016H73.815l.545 8.181 7.636 85.085h69.268zm0 80.177h-.545l-34.361-9.273-2.182-24.543H83.633l3.817 48.542 63.269 17.453h.545z" fill="#ebebeb"/><path d="M150.719 126.193v31.089h38.179l-3.818 39.815-34.361 9.273v32.18l63.268-17.454.546-5.454 7.09-81.267 1.09-8.182h-8.726zm0-62.177v30.543h74.722l.545-6.545 1.637-15.817.545-8.181z" fill="#fff"/></svg>
